# xmcd
#
# Track frame offsets: 
#        150
#        15254
#        31471
#        47653
#
# Disc length: 833 seconds
#
# Revision: 1
# Processed by: cddbd v1.5.2PL0 Copyright (c) Steve Scherf et al.
# Submitted via: ExactAudioCopy v0.99pb5
#
DISCID=23033f04
DTITLE=Timbaland - The Way I Are [CDS)
DYEAR=2007
DGENRE=Hip-Hop
TTITLE0=The Way I Are (Radio)
TTITLE1=The Way I Are (Ext.)
TTITLE2=The Way I Are (Instr.)
TTITLE3=The Way I Are (Acappella)
EXTD=
EXTT0=
EXTT1=
EXTT2=
EXTT3=
PLAYORDER=
